<?xml version="1.0" encoding="UTF-8"?>
<svg width="738px" height="139px" viewBox="0 0 738 139" version="1.1" xmlns="http://www.w3.org/2000/svg" xmlns:xlink="http://www.w3.org/1999/xlink">
    <title>Group 15</title>
    <defs>
        <polygon id="path-1" points="0 0 293 0 293 139 0 139"></polygon>
    </defs>
    <g id="StarAtlas" stroke="none" stroke-width="1" fill="none" fill-rule="evenodd">
        <g id="Group-3" transform="translate(-52.000000, -262.000000)">
            <g id="Group-15" transform="translate(52.000000, 262.000000)">
                <path d="M696.441308,0 C719.911617,0.101090909 737.435768,19.6790303 738,42.4452214 C738.050127,52.3936037 734.457494,61.749697 728.090507,69.327627 C734.671805,77.0079441 737.75139,86.7230396 738,96.7167832 C738,120.055823 719.480397,139 696.675102,139 L628.057893,139 C626.044668,139 622.771553,137.526406 627.226626,133.340205 C631.681698,129.152709 636.755026,121.240401 640.478843,112.699515 C641.306214,110.790452 643.741567,109.52552 645.370331,109.52552 L696.755631,109.52552 C703.625275,109.480159 709.129822,103.75945 709.129822,96.7167832 C709.129822,89.8309371 703.86946,84.2074312 697.207632,83.9235991 L696.441308,83.9184149 L696.441308,83.9443357 L650.017634,83.9391515 C647.130279,83.9391515 644.670248,81.0178834 644.670248,78.2987972 L644.670248,71.9754312 L644.665053,71.9754312 L644.665053,60.0739207 L644.674145,60.0324476 C644.694926,58.2257716 645.471641,57.233007 646.613335,55.9875152 C646.70945,55.8514312 646.658795,55.9019767 646.765301,55.8255105 C647.18613,55.3602331 646.927658,55.5675991 647.577085,55.2487739 C648.327824,54.7122145 647.921282,54.9092121 648.788917,54.6513007 C649.017516,54.5398415 648.895423,54.5748345 649.149999,54.5450256 C649.560437,54.418014 649.275988,54.489296 650.017634,54.4387506 L650.134531,54.4387506 L650.164404,54.4335664 L696.441308,54.4335664 C703.351216,54.3882051 709.028511,49.5125128 709.028511,42.4452214 C708.932396,35.514014 703.798023,30.2391422 696.979034,29.6014918 L650.017634,29.5963077 L649.930611,29.5859394 C649.317551,29.5457622 649.550046,29.6014918 649.205849,29.5004009 C648.87594,29.4589277 649.033102,29.5055851 648.738262,29.3578368 C647.962845,29.1258462 648.327824,29.3021072 647.643327,28.8160932 C646.912072,28.4570909 647.201716,28.6903776 646.734128,28.1732587 C646.693864,28.1434499 646.714646,28.1628904 646.674381,28.1084569 C645.35994,27.034042 644.841697,25.5669277 644.670248,23.9365128 L644.665053,23.9365128 L644.670248,23.9365128 L644.665053,5.66497902 C644.841697,3.18436364 646.571772,0.430284382 649.2617,0.0959067599 C649.453931,-0.0712820513 649.291574,0.0505454545 649.855277,0 L696.441308,0 Z" id="Fill-1" fill="#FFFFFF"></path>
                <polygon id="Fill-3" fill="#FF325F" points="322 70.5 282 92 282 49"></polygon>
                <g id="Group-8" transform="translate(345.000000, 0.000000)">
                    <mask id="mask-2" fill="white">
                        <use xlink:href="#path-1"></use>
                    </mask>
                    <g id="Clip-6"></g>
                    <path d="M68.7430565,29.5807552 C48.538711,30.3907786 33.9983832,50.6517296 33.4870122,69.6568205 C33.4870122,90.2664056 51.0644164,108.893054 68.7534396,108.893054 L96.3428128,108.893054 C97.9405227,108.893054 99.1267996,109.550145 100.130073,111.525305 C100.424695,112.102042 100.130073,133.887133 100.130073,135.146881 C100.130073,136.407925 99.1319911,139 96.3428128,139 L66.7455947,139 C32.9548749,139 0,106.072876 0,69.6568205 C0,33.2368765 30.2565493,0 68.8339092,0 L97.5200044,0 C98.7062813,0 100.130073,1.45804196 100.130073,2.96144522 L100.130073,26.6296783 C100.130073,28.3611841 99.1774175,29.5807552 97.5200044,29.5807552 L68.7430565,29.5807552 Z" id="Fill-5" fill="#FFFFFF" mask="url(#mask-2)"></path>
                    <path d="M216.727849,81.488345 C216.733041,93.7047925 223.770233,108.896942 239.948505,108.896942 C256.126777,108.896942 260.720031,93.7047925 260.720031,81.488345 L262.635725,3.87774359 C262.635725,2.29787413 263.300248,1.12366434 265.292518,0.127011655 C265.876571,-0.162004662 287.84346,0.127011655 289.116695,0.127011655 C290.388633,0.127011655 293,1.11848019 293,3.87774359 L291.083008,81.4066946 C291.083008,114.86649 276.675065,139 239.948505,139 C203.221945,139 186.89701,119.599618 186.89701,81.4066946 C186.89701,55.9421538 187.535575,29.712951 188.814002,2.71908625 C188.814002,1.53969231 190.28322,0.127011655 191.799163,0.127011655 L215.663575,0.127011655 C217.413138,0.127011655 218.644842,1.07311888 218.644842,2.71908625 L216.727849,81.488345 Z" id="Fill-7" fill="#FFFFFF" mask="url(#mask-2)"></path>
                </g>
                <g id="Group-14" fill="#FFFFFF">
                    <path d="M453.535597,136.033371 L453.535597,2.96662937 C453.535597,1.32584615 454.856386,0 456.484064,0 L479.77268,0 C481.401653,0 482.721147,1.32584615 482.721147,2.96662937 L482.721147,109.65642 L521.011076,109.424429 C522.645228,109.424429 524.759786,109.642163 525.892815,112.978163 C529.0394,122.252606 531.775505,127.0622 538.244781,133.532019 C540.743921,136.033371 536.408626,139 534.39507,139 L456.484064,139 C454.856386,139 453.535597,137.66897 453.535597,136.033371 Z" id="Fill-9"></path>
                    <path d="M233.080393,136.033371 L233.080393,2.96662937 C233.080393,1.32584615 234.410246,0 236.049578,0 L310.516173,0 C312.154211,0 313.485359,1.32584615 313.485359,2.96662937 C313.485359,2.96662937 310.652137,9.80581818 304.981809,23.4854918 C304.360261,24.983711 301.911622,26.75669 300.125967,26.7968671 C291.011229,27.0094172 291.011229,27.0094172 262.458881,27.6768765 C262.458881,61.7795058 262.458881,88.8342844 262.458881,108.841212 L300.125967,108.841212 C303.333413,108.841212 304.395223,111.347748 304.981809,112.765613 C314.324448,135.253156 314.324448,135.253156 314.324448,135.253156 C315.7307,138.271627 312.366573,139 310.516173,139 L236.049578,139 C234.410246,139 233.080393,137.674154 233.080393,136.033371 Z" id="Fill-11"></path>
                    <path d="M144.704077,0 C146.33305,0 147.652544,1.32584615 147.652544,2.96662937 C147.52694,5.94362704 147.476439,10.9865082 147.471259,16.8990303 L147.471259,18.8275338 C147.476439,22.0831795 147.485503,25.5565594 147.506221,29.0597483 L147.51658,31.1606247 C147.51658,31.3939114 147.52176,31.6259021 147.52176,31.864373 L147.532119,33.2615012 C147.58262,41.8827413 147.652544,50.2266294 147.652544,55.5416783 L194.198698,55.5416783 L194.198698,2.96662937 C194.198698,1.32584615 195.518192,0 197.147165,0 L220.420243,0 C222.047921,0 223.36871,1.32584615 223.36871,2.96662937 L223.36871,136.033371 C223.36871,138.033156 222.432503,139 220.420243,139 L197.147165,139 C195.518192,139 194.198698,137.674154 194.198698,136.033371 L194.198698,83.5594126 L147.652544,83.5594126 L147.652544,136.033371 C147.652544,138.033156 146.717633,139 144.704077,139 L121.431,139 C119.803322,139 118.482533,137.674154 118.482533,136.033371 L118.482533,2.96662937 C118.482533,1.32584615 119.803322,0 121.431,0 L144.704077,0 Z" id="Fill-12"></path>
                    <path d="M2.9432874,29.3435804 C1.32078889,29.3435804 0,28.0164382 0,26.376951 L0,2.96662937 C0,1.32584615 1.32078889,0 2.9432874,0 L105.827562,0 C107.450061,0 108.77085,1.32584615 108.77085,2.96662937 L108.77085,26.376951 C108.77085,28.0164382 107.450061,29.3435804 105.827562,29.3435804 L68.9374108,29.3435804 L68.9374108,136.033371 C68.9374108,137.674154 67.6230963,139 65.9993029,139 L42.7715469,139 C41.1477535,139 39.8334391,137.674154 39.8334391,136.033371 L39.8334391,29.3435804 L2.9432874,29.3435804 Z" id="Fill-13"></path>
                </g>
            </g>
        </g>
    </g>
</svg>